<?xml version="1.0" encoding="UTF-8" standalone="no" ?>
<!DOCTYPE svg PUBLIC "-//W3C//DTD SVG 1.1//EN" "http://www.w3.org/Graphics/SVG/1.1/DTD/svg11.dtd">
<svg xmlns="http://www.w3.org/2000/svg" xmlns:xlink="http://www.w3.org/1999/xlink" version="1.1" width="512" height="512" viewBox="0 0 512 512" xml:space="preserve">
  <g transform="matrix(1 0 0 1 256 256)">
    <path style="stroke: rgb(0,0,0); stroke-width: 0; stroke-dasharray: none; stroke-linecap: butt; stroke-dashoffset: 0; stroke-linejoin: miter; stroke-miterlimit: 4; fill: rgb(0,0,0); fill-rule: nonzero; opacity: 1;"  transform=" translate(-220, -222)" d="M 64 120 C 79.05863 120 92.90793 125.20944 103.84285 133.92327 L 161.40063 89.75763 C 157.92819 81.87534000000001 156 73.16148000000001 156 64 C 156 28.671999999999997 184.672 0 220 0 C 255.328 0 284 28.672 284 64 C 284 73.08528 282.10375 81.73036 278.68569 89.56079 L 336.32563000000005 133.78947 C 347.23416000000003 125.15614 361.01860000000005 120 376.00000000000006 120 C 411.3280000000001 120 440.00000000000006 148.672 440.00000000000006 184 C 440.00000000000006 219.328 411.32800000000003 248 376.00000000000006 248 C 374.58416000000005 248 373.17901000000006 247.95395 371.7859700000001 247.86326 L 348.57839000000007 323.77182 C 368.4843400000001 334.62674 381.9999900000001 355.74459 381.9999900000001 380 C 381.9999900000001 415.328 353.32799000000006 444 317.9999900000001 444 C 287.4804700000001 444 261.9283700000001 422.6019 255.5379900000001 394 L 184.4619900000001 394 C 178.0716200000001 422.6019 152.5195100000001 444 121.9999900000001 444 C 86.6719900000001 444 57.999990000000096 415.328 57.999990000000096 380 C 57.999990000000096 355.73259 71.5290200000001 334.60585 91.45113000000009 323.75572 L 68.2478000000001 247.86104999999998 C 66.8436900000001 247.95319999999998 65.42727000000009 247.99999999999997 63.999990000000096 247.99999999999997 C 28.671990000000093 247.99999999999997 -0.000009999999903698154 219.32799999999997 -0.000009999999903698154 183.99999999999997 C -0.000009999999903698154 148.67199999999997 28.671990000000097 119.99999999999997 63.999990000000096 119.99999999999997 z M 250.53164 120.25365 L 266.35209000000003 172 L 313.12476000000004 172 C 314.48711000000003 164.82741 317.04769000000005 158.07747 320.59012 151.96653 L 265.10457 109.39097000000001 C 260.80377000000004 113.66483000000001 255.89962000000003 117.33223000000001 250.53163000000004 120.25365000000001 z M 261.18883 350.51585 L 219.98568 318.89956 L 178.803 350.50014 C 181.9304 356.50588999999997 184.13318 363.06889 185.2222 369.99998999999997 L 254.77779999999998 369.99998999999997 C 255.86586999999997 363.07491999999996 258.06576 356.51732999999996 261.18883 350.51583999999997 z M 220 128 C 217.45088 128 214.93641 127.85072 212.46487 127.56043 L 198.87833 172 L 241.25548 172 L 227.66426 127.54513 C 225.15118 127.84547 222.59353000000002 128 219.99999000000003 128 z M 175.04508 109.53921 L 119.51515 152.14882 C 123.00306 158.21161 125.52642 164.89866 126.87524 172 L 173.78173 172 L 189.58313 120.31595999999999 C 184.23251000000002 117.41814999999998 179.34060000000002 113.78002 175.04509000000002 109.53921 z M 333.47434 231.81665 L 293.91929999999996 262.1683 L 310.51007 316.43428 C 312.96707 316.14747 315.46641 316 318 316 C 320.61163 316 323.18689 316.15669 325.71688 316.46118 L 348.53754 241.81815 C 343.03941999999995 239.2001 337.97281999999996 235.82074 333.47432999999995 231.81665 z M 239.69784 303.77389 L 276.05561 331.67219 C 279.5927 328.59921 283.47003 325.90781 287.62331 323.6623 L 273.59151 277.76636 z M 122 316 C 124.57799 316 127.12054 316.15268 129.61909 316.44949 L 146.18365 262.26927 L 106.51241 231.82846 C 102.02543 235.82009 96.97366 239.19036 91.49254 241.80383 L 114.31636 316.4572 C 116.83566 316.15533 119.3998 316.00001 122 316.00001 z M 163.93096 331.66052 L 200.27352 303.77389 L 166.51143 277.86733 L 152.49148 323.72452 C 156.59618 325.95461 160.43009999999998 328.62071 163.93095 331.66051999999996 z M 121.15537 212.81306 L 153.67497 237.76623 L 166.44419 196 L 126.87523999999999 196 C 125.74803999999999 201.93453 123.80057 207.57974 121.15536999999999 212.81306 z M 219.98568 288.64822 L 266.10018 253.26331999999996 L 248.59302000000002 195.99998999999997 L 191.54079000000002 195.99998999999997 L 174.00277000000003 253.36427999999995 z M 318.83663 212.79723 C 316.19551 207.56835 314.25082000000003 201.92855 313.12476000000004 196 L 273.68962000000005 196 L 286.4279700000001 237.66526 z M 24 184 C 24 206.07999999999998 41.92 224 64 224 C 86.08 224 104 206.07999999999998 104 184 C 104 161.92000000000002 86.08 144 64 144 C 41.92 144 24 161.92000000000002 24 184 z M 336 184 C 336 206.07999999999998 353.92 224 376 224 C 398.08 224 416 206.07999999999998 416 184 C 416 161.92000000000002 398.08 144 376 144 C 353.92 144 336 161.92000000000002 336 184 z M 278 380 C 278 402.08 295.92 420 318 420 C 340.08 420 358 402.08 358 380 C 358 357.92 340.08 340 318 340 C 295.92 340 278 357.92 278 380 z M 82 380 C 82 402.08 99.92 420 122 420 C 144.07999999999998 420 162 402.08 162 380 C 162 357.92 144.07999999999998 340 122 340 C 99.92 340 82 357.92 82 380 z M 180 64 C 180 86.08 197.92000000000002 104 220 104 C 242.07999999999998 104 260 86.08 260 64 C 260 41.92 242.07999999999998 24 220 24 C 197.92000000000002 24 180 41.92 180 64 z" stroke-linecap="round" />
  </g>
</svg>